<?xml version="1.0" standalone="no"?>
<!DOCTYPE svg PUBLIC "-//W3C//DTD SVG 20010904//EN"
 "http://www.w3.org/TR/2001/REC-SVG-20010904/DTD/svg10.dtd">
<svg version="1.0" xmlns="http://www.w3.org/2000/svg"
 width="1280.000000pt" height="1280.000000pt" viewBox="0 0 1280.000000 1280.000000"
 preserveAspectRatio="xMidYMid meet">

<g transform="translate(0.000000,1280.000000) scale(0.100000,-0.100000)"
fill="#000000" stroke="none">
<path d="M2927 12006 c-52 -19 -103 -60 -135 -109 l-27 -42 -3 -557 -2 -557
-638 -4 c-492 -2 -647 -6 -680 -16 -64 -20 -137 -91 -161 -156 l-21 -55 0
-4509 c-1 -4054 1 -4517 15 -4585 68 -330 316 -605 640 -711 181 -59 -136 -55
4485 -55 4621 0 4304 -4 4485 55 324 106 572 381 640 711 14 68 16 531 15
4585 l0 4509 -21 55 c-24 65 -97 136 -161 156 -33 10 -188 14 -680 16 l-638 4
0 547 c0 537 0 548 -21 587 -28 54 -55 82 -109 113 l-45 27 -600 0 -600 0 -45
-27 c-58 -34 -95 -73 -116 -123 -16 -36 -17 -94 -18 -580 l-1 -540 -652 -3
-653 -2 0 528 c0 608 1 603 -78 678 -78 75 -69 74 -702 74 -633 0 -624 1 -702
-74 -79 -75 -78 -70 -78 -678 l0 -528 -652 2 -653 3 -1 540 c-1 486 -2 544
-18 580 -21 50 -58 89 -116 123 l-45 27 -585 2 c-471 2 -592 0 -623 -11z
m-167 -2051 l5 -300 28 -46 c15 -26 46 -59 67 -73 84 -55 109 -57 707 -54 485
3 552 5 583 20 66 31 115 74 139 123 23 46 24 54 23 289 -1 132 1 265 4 294
l5 52 649 0 649 0 3 -297 c3 -285 4 -300 25 -339 26 -49 72 -90 133 -118 44
-21 58 -21 620 -21 562 0 576 0 620 21 61 28 107 69 133 118 21 39 22 54 25
339 l3 297 649 0 649 0 5 -52 c3 -29 5 -162 4 -294 -1 -235 0 -243 23 -289 24
-49 73 -92 139 -123 31 -15 98 -17 583 -20 598 -3 623 -1 707 54 21 14 52 47
67 73 l28 46 5 300 5 300 493 3 492 2 0 -4397 0 -4398 -30 -63 c-59 -124 -209
-241 -348 -271 -75 -16 -8429 -16 -8504 0 -139 30 -289 147 -348 271 l-30 63
0 4398 0 4397 493 -2 492 -3 5 -300z"/>
<path d="M3100 7681 c-77 -24 -152 -94 -170 -160 -33 -121 16 -235 126 -291
l49 -25 3295 0 3295 0 49 25 c110 56 159 170 126 291 -13 47 -72 114 -124 142
l-41 22 -3290 2 c-1809 1 -3301 -2 -3315 -6z"/>
<path d="M4430 5880 c-1248 -5 -1347 -6 -1376 -22 -148 -81 -179 -271 -64
-387 19 -18 54 -43 79 -55 l46 -21 3285 0 3285 0 46 21 c160 75 200 272 79
392 -43 44 -82 62 -138 67 -77 7 -3795 11 -5242 5z"/>
<path d="M3110 4071 c-120 -37 -190 -125 -190 -237 0 -68 19 -113 68 -164 88
-90 -265 -82 3412 -82 3677 0 3324 -8 3412 82 115 119 84 299 -66 378 l-51 27
-3280 2 c-1804 1 -3291 -2 -3305 -6z"/>
</g>
</svg>
