<?xml version="1.0" standalone="no"?>
<!DOCTYPE svg PUBLIC "-//W3C//DTD SVG 20010904//EN"
 "http://www.w3.org/TR/2001/REC-SVG-20010904/DTD/svg10.dtd">
<svg version="1.0" xmlns="http://www.w3.org/2000/svg"
 width="1280.000000pt" height="1280.000000pt" viewBox="0 0 1280.000000 1280.000000"
 preserveAspectRatio="xMidYMid meet">

<g transform="translate(0.000000,1280.000000) scale(0.100000,-0.100000)"
fill="#000000" stroke="none">
<path d="M6085 11949 c-163 -16 -370 -54 -555 -102 -60 -16 -263 -82 -295 -97
-11 -5 -49 -21 -85 -35 -184 -74 -447 -217 -600 -326 -41 -30 -86 -61 -100
-71 -59 -38 -243 -198 -343 -296 -103 -101 -283 -309 -344 -398 -101 -145
-137 -201 -193 -298 -192 -334 -335 -732 -386 -1076 -8 -52 -19 -117 -25 -145
-16 -72 -23 -578 -10 -705 19 -180 58 -402 91 -520 29 -107 62 -216 70 -235 5
-11 12 -31 15 -45 4 -14 13 -38 20 -55 7 -16 20 -50 30 -75 10 -25 38 -87 62
-139 24 -51 43 -95 43 -96 0 -2 23 -42 50 -90 28 -48 50 -88 50 -91 0 -2 28
-48 62 -101 254 -399 607 -754 997 -1002 99 -63 290 -171 303 -171 17 0 -2
-18 -24 -23 -92 -21 -357 -105 -478 -152 -19 -8 -66 -25 -105 -40 -74 -28 -79
-30 -165 -68 -30 -13 -75 -33 -100 -43 -77 -33 -388 -192 -483 -248 -453 -264
-778 -511 -1141 -866 -201 -197 -346 -359 -524 -587 -266 -342 -538 -803 -706
-1198 -26 -60 -51 -119 -56 -130 -52 -117 -146 -393 -210 -620 -31 -109 -80
-324 -106 -460 -8 -44 -19 -100 -24 -125 -5 -25 -9 -82 -9 -128 -1 -106 26
-170 96 -230 62 -54 127 -70 210 -53 32 6 60 16 61 21 2 6 8 10 14 10 19 0 98
73 104 96 3 13 10 24 15 24 5 0 9 11 9 24 0 12 4 36 10 52 5 16 19 81 30 144
31 176 64 325 108 490 20 73 120 381 140 430 5 14 17 43 25 65 38 99 156 359
210 464 495 967 1281 1750 2241 2234 99 51 199 100 221 109 22 9 83 34 135 56
52 22 106 43 120 47 14 4 30 11 35 15 10 7 220 80 290 100 22 7 69 21 105 32
122 37 318 82 445 104 50 8 106 19 125 24 19 5 73 14 120 20 47 5 116 14 155
19 178 24 562 34 813 22 136 -7 279 -17 317 -22 39 -5 108 -14 155 -19 47 -6
101 -15 120 -20 19 -5 76 -16 125 -24 127 -22 323 -67 445 -104 36 -11 83 -25
105 -32 70 -20 280 -93 290 -100 6 -4 21 -11 35 -15 14 -4 68 -25 120 -47 52
-22 113 -47 135 -56 93 -39 413 -206 531 -278 443 -267 810 -568 1151 -941
315 -345 569 -711 780 -1124 54 -105 172 -365 210 -464 8 -22 20 -51 25 -65
20 -49 120 -357 140 -430 44 -165 77 -314 108 -490 11 -63 25 -128 30 -144 6
-16 10 -40 10 -52 0 -13 4 -24 9 -24 5 0 12 -11 15 -24 6 -23 85 -96 104 -96
6 0 12 -4 14 -10 2 -5 29 -15 61 -21 83 -17 148 -1 210 53 70 60 97 124 96
230 0 46 -4 103 -9 128 -5 25 -16 81 -24 125 -43 227 -111 497 -178 700 -43
131 -112 322 -138 380 -5 11 -30 70 -56 130 -168 395 -440 856 -706 1198 -178
228 -323 390 -524 587 -363 355 -688 602 -1141 866 -95 56 -406 215 -483 248
-25 10 -70 30 -100 43 -86 38 -91 40 -165 68 -38 15 -86 32 -105 40 -121 47
-386 131 -478 152 -22 5 -41 23 -24 23 13 0 204 108 303 171 390 248 743 603
997 1002 34 53 62 99 62 101 0 3 23 43 50 91 28 48 50 88 50 90 0 1 19 45 43
96 24 52 52 114 62 139 10 25 23 59 30 75 7 17 16 41 20 55 3 14 10 34 15 45
8 19 41 128 70 235 33 118 72 340 91 520 13 127 6 633 -10 705 -6 28 -17 93
-25 145 -51 344 -194 742 -386 1076 -56 97 -92 153 -193 298 -61 89 -241 297
-344 398 -100 98 -284 258 -343 296 -14 10 -59 41 -100 71 -153 109 -416 252
-600 326 -36 14 -74 30 -85 35 -32 15 -235 81 -295 97 -192 49 -391 86 -570
103 -113 11 -502 10 -615 -1z m664 -543 c79 -9 147 -19 152 -21 4 -3 38 -11
76 -19 91 -18 195 -45 213 -55 8 -4 39 -14 68 -20 28 -7 55 -17 58 -22 3 -5
13 -9 22 -9 26 0 288 -120 403 -185 217 -122 389 -254 585 -449 151 -152 233
-250 338 -405 136 -202 279 -497 328 -676 6 -22 14 -44 18 -50 4 -5 11 -26 14
-45 4 -19 13 -57 21 -85 94 -338 106 -827 30 -1190 -62 -290 -120 -457 -245
-706 -199 -394 -490 -734 -847 -987 -368 -261 -806 -434 -1223 -482 -47 -6
-121 -15 -165 -20 -103 -13 -287 -13 -390 0 -44 5 -118 14 -165 20 -417 48
-855 221 -1223 482 -468 332 -817 805 -1007 1366 -33 97 -51 166 -85 327 -76
363 -64 852 30 1190 8 28 17 66 21 85 3 19 10 40 14 45 4 6 12 28 18 50 49
179 192 474 328 676 105 155 187 253 338 405 196 195 368 327 585 449 115 65
377 185 403 185 9 0 19 4 22 9 3 5 30 15 58 22 29 6 60 16 68 20 18 10 122 37
213 55 38 8 72 16 76 19 5 2 77 12 162 20 85 9 156 19 159 21 10 11 392 -4
529 -20z"/>
</g>
</svg>
