<?xml version="1.0" standalone="no"?>
<!DOCTYPE svg PUBLIC "-//W3C//DTD SVG 20010904//EN"
 "http://www.w3.org/TR/2001/REC-SVG-20010904/DTD/svg10.dtd">
<svg version="1.0" xmlns="http://www.w3.org/2000/svg"
 width="1280.000000pt" height="1280.000000pt" viewBox="0 0 1280.000000 1280.000000"
 preserveAspectRatio="xMidYMid meet">

<g transform="translate(0.000000,1280.000000) scale(0.100000,-0.100000)"
fill="#000000" stroke="none">
<path d="M6095 11710 c-160 -9 -458 -37 -520 -50 -27 -5 -95 -16 -150 -25
-148 -21 -355 -64 -510 -105 -44 -12 -107 -28 -140 -36 -33 -8 -69 -19 -80
-24 -11 -5 -40 -14 -65 -20 -25 -6 -54 -15 -65 -20 -11 -5 -36 -13 -55 -19
-49 -13 -229 -78 -267 -96 -17 -8 -34 -15 -38 -15 -4 0 -21 -6 -38 -14 -18 -8
-61 -27 -97 -41 -231 -94 -689 -334 -842 -441 -26 -19 -50 -34 -52 -34 -3 0
-31 -18 -63 -40 -32 -22 -66 -46 -77 -53 -122 -82 -378 -283 -538 -425 -112
-100 -357 -343 -435 -434 -127 -145 -242 -287 -316 -389 -114 -157 -237 -345
-329 -504 -60 -106 -211 -402 -248 -490 -12 -28 -70 -166 -79 -190 -23 -55
-53 -142 -89 -250 -128 -383 -194 -689 -228 -1055 -8 -91 -20 -194 -25 -230
-23 -143 7 -889 41 -1010 5 -19 16 -80 24 -135 47 -324 188 -815 316 -1100 5
-11 22 -52 39 -91 62 -146 220 -449 311 -599 42 -70 207 -321 223 -340 4 -5
40 -53 80 -105 120 -159 228 -288 365 -435 l129 -140 -195 -290 c-108 -159
-259 -384 -337 -500 -348 -515 -329 -482 -329 -585 1 -128 64 -234 172 -287
l57 -28 2525 0 c2359 0 2528 1 2575 17 28 10 102 22 165 28 227 20 534 64 715
104 191 41 484 116 530 135 11 5 85 30 165 55 80 26 159 54 177 62 17 8 35 14
40 14 4 0 20 6 35 14 14 8 43 19 63 26 20 7 49 18 63 26 15 8 30 14 34 14 24
0 462 217 608 301 169 97 475 292 500 319 3 3 41 32 85 64 404 300 781 674
1092 1086 40 52 76 100 80 105 18 22 184 275 223 340 92 150 249 454 311 599
17 39 34 80 39 91 128 285 269 776 316 1100 8 55 19 116 24 135 34 121 64 867
41 1010 -5 36 -17 139 -25 230 -34 366 -100 672 -228 1055 -36 108 -66 195
-89 250 -9 24 -67 162 -79 190 -37 88 -188 384 -248 490 -92 159 -215 347
-329 504 -74 102 -189 244 -316 389 -78 91 -323 334 -435 434 -160 142 -416
343 -538 425 -11 7 -45 31 -77 53 -32 22 -60 40 -63 40 -2 0 -26 15 -52 34
-153 107 -611 347 -842 441 -36 14 -79 33 -97 41 -17 8 -34 14 -38 14 -4 0
-21 7 -38 15 -38 18 -218 83 -267 96 -19 6 -44 14 -55 19 -11 5 -40 14 -65 20
-25 6 -54 15 -65 20 -11 5 -47 16 -80 24 -33 8 -96 24 -140 36 -155 41 -362
84 -510 105 -55 9 -122 20 -150 25 -63 13 -343 39 -535 50 -164 9 -416 9 -595
0z m642 -540 c26 -5 122 -14 213 -20 91 -6 179 -15 195 -20 17 -5 77 -16 135
-24 114 -16 208 -34 340 -65 47 -10 119 -27 160 -36 41 -9 79 -21 84 -26 6 -5
18 -9 28 -9 10 0 47 -9 81 -20 34 -11 98 -32 142 -46 44 -14 94 -32 112 -40
17 -8 37 -14 45 -14 7 0 25 -6 40 -14 14 -8 43 -19 65 -26 21 -7 43 -16 48
-20 6 -4 21 -11 35 -15 14 -4 50 -19 80 -32 30 -14 89 -40 130 -59 130 -57
443 -222 448 -236 2 -4 7 -8 12 -8 11 0 162 -93 312 -194 60 -41 213 -154 292
-216 171 -136 499 -450 642 -615 135 -157 266 -330 382 -505 213 -323 390
-676 507 -1015 9 -27 21 -59 25 -70 15 -36 59 -185 66 -223 4 -20 10 -41 14
-47 4 -5 13 -41 20 -80 7 -38 16 -74 20 -80 4 -5 11 -32 14 -60 4 -27 11 -63
16 -80 9 -27 20 -99 51 -316 13 -96 32 -406 32 -534 0 -131 -20 -453 -33 -545
-5 -36 -16 -112 -24 -170 -8 -58 -20 -121 -25 -140 -6 -19 -15 -57 -20 -85 -5
-27 -19 -86 -30 -130 -11 -44 -27 -109 -36 -145 -8 -36 -19 -74 -24 -85 -5
-11 -21 -58 -36 -105 -27 -85 -56 -168 -81 -227 -8 -17 -14 -34 -14 -38 0 -3
-9 -27 -21 -53 -12 -26 -28 -63 -36 -82 -65 -151 -247 -501 -265 -508 -4 -2
-8 -9 -8 -15 0 -6 -11 -27 -24 -46 -13 -20 -49 -76 -81 -126 -98 -151 -200
-287 -373 -495 -49 -59 -434 -446 -492 -495 -222 -188 -342 -278 -530 -402
-47 -30 -98 -64 -114 -76 -94 -65 -474 -269 -621 -332 -22 -10 -58 -26 -80
-36 -70 -31 -240 -99 -248 -99 -5 0 -23 -7 -40 -15 -46 -20 -303 -105 -322
-105 -8 0 -23 -4 -33 -10 -18 -10 -99 -31 -217 -56 -38 -9 -79 -19 -90 -24
-19 -8 -104 -25 -280 -55 -44 -7 -107 -18 -140 -23 -33 -6 -96 -14 -140 -17
-44 -3 -89 -10 -100 -15 -24 -10 -167 -30 -212 -30 -18 0 -33 -4 -33 -9 0 -5
-24 -12 -52 -16 -72 -10 -4510 -17 -4519 -8 -5 5 30 64 77 133 47 69 187 278
312 465 125 187 233 344 240 348 6 4 12 13 12 18 0 10 71 104 105 140 8 8 18
30 21 47 4 18 10 32 15 32 12 0 11 77 -1 85 -5 3 -10 16 -10 29 0 17 -62 86
-223 247 -123 123 -244 249 -269 279 -177 214 -276 344 -373 495 -32 50 -68
106 -81 126 -13 19 -24 40 -24 46 0 6 -4 13 -8 15 -18 7 -200 357 -265 508 -8
19 -24 56 -36 82 -12 26 -21 50 -21 53 0 4 -6 21 -14 38 -25 59 -54 142 -81
227 -15 47 -31 94 -36 105 -5 11 -16 49 -24 85 -9 36 -25 101 -36 145 -11 44
-25 103 -30 130 -5 28 -14 66 -20 85 -5 19 -17 82 -25 140 -8 58 -19 134 -24
170 -13 92 -33 414 -33 545 0 128 19 438 32 534 31 217 42 289 51 316 5 17 12
53 16 80 3 28 10 55 14 60 4 6 13 42 20 80 7 39 16 75 20 80 4 6 10 27 14 47
7 38 51 187 66 223 4 11 16 43 25 70 117 339 294 692 507 1015 116 175 247
348 382 505 143 165 471 479 642 615 79 62 232 175 292 216 150 101 301 194
312 194 5 0 10 4 12 8 5 14 318 179 448 236 41 19 101 45 132 60 31 14 60 26
65 26 4 0 20 6 35 14 14 8 43 19 63 26 20 7 49 18 63 26 15 8 33 14 40 14 8 0
28 6 45 14 18 8 68 26 112 40 44 14 108 35 142 46 34 11 71 20 81 20 10 0 22
4 27 9 6 5 44 17 85 26 41 9 113 26 160 36 132 31 226 49 340 65 58 8 118 19
134 24 16 5 106 14 200 21 94 6 187 14 206 19 50 11 619 12 677 0z"/>
</g>
</svg>
