<?xml version="1.0" standalone="no"?>
<!DOCTYPE svg PUBLIC "-//W3C//DTD SVG 20010904//EN"
 "http://www.w3.org/TR/2001/REC-SVG-20010904/DTD/svg10.dtd">
<svg version="1.0" xmlns="http://www.w3.org/2000/svg"
 width="1280.000000pt" height="1280.000000pt" viewBox="0 0 1280.000000 1280.000000"
 preserveAspectRatio="xMidYMid meet">

<g transform="translate(0.000000,1280.000000) scale(0.100000,-0.100000)"
fill="#000000" stroke="none">
<path d="M6285 11951 c-59 -15 -112 -51 -225 -152 -63 -56 -129 -114 -145
-128 -17 -14 -82 -71 -145 -126 -63 -55 -144 -125 -180 -156 -36 -30 -85 -73
-110 -96 -56 -50 -267 -236 -510 -448 -100 -88 -280 -245 -400 -350 -119 -104
-299 -262 -400 -350 -101 -88 -244 -214 -319 -280 -75 -66 -168 -147 -206
-180 -39 -33 -72 -62 -75 -65 -6 -7 -609 -535 -730 -640 -112 -97 -336 -292
-514 -449 -78 -68 -170 -149 -205 -180 -36 -31 -123 -108 -195 -171 -72 -64
-170 -149 -217 -190 -47 -41 -147 -129 -221 -195 -73 -66 -178 -158 -232 -205
-54 -47 -114 -104 -132 -128 -92 -120 -53 -296 79 -358 29 -13 66 -24 84 -24
22 0 36 -6 43 -20 7 -13 10 -860 10 -2784 l-1 -2764 22 -88 c77 -313 312 -566
623 -669 174 -59 -128 -55 4416 -55 4544 0 4242 -4 4416 55 311 103 546 356
623 669 l22 88 -1 2764 c0 1924 3 2771 10 2784 7 14 21 20 43 20 18 0 55 11
84 24 132 62 171 238 78 358 -18 24 -77 81 -131 128 -54 47 -159 139 -232 205
-74 66 -174 154 -221 195 -47 41 -145 126 -217 190 -72 63 -159 140 -195 171
-35 31 -127 112 -205 180 -178 157 -402 352 -514 449 -121 105 -724 633 -730
640 -3 3 -36 32 -75 65 -38 33 -131 114 -206 180 -75 66 -218 192 -319 280
-101 88 -281 246 -400 350 -120 105 -300 262 -400 350 -243 212 -454 398 -510
448 -25 23 -74 66 -110 96 -36 31 -117 101 -180 156 -63 55 -128 112 -145 126
-16 14 -82 72 -145 128 -155 138 -186 154 -320 157 -58 2 -118 0 -135 -5z
m256 -631 c73 -63 178 -155 232 -205 55 -49 129 -115 165 -145 60 -51 252
-218 402 -350 36 -31 144 -126 240 -210 96 -83 256 -223 355 -310 251 -220
847 -742 924 -809 36 -31 123 -108 195 -171 72 -63 178 -156 236 -206 58 -51
170 -149 250 -219 80 -70 226 -197 324 -284 99 -86 239 -208 310 -271 72 -63
165 -144 206 -180 41 -36 136 -118 210 -184 193 -170 187 -164 283 -245 l87
-75 0 -2976 0 -2977 -32 -64 c-43 -87 -134 -176 -228 -225 l-75 -39 -972 -3
-973 -2 0 1762 c0 1079 -4 1810 -10 1883 -23 277 -55 447 -106 569 -116 276
-334 442 -664 509 -78 16 -2922 16 -3000 0 -229 -46 -439 -162 -541 -300 -123
-165 -168 -283 -203 -543 -34 -246 -36 -361 -36 -2118 l0 -1762 -972 2 -973 3
-75 39 c-94 49 -185 138 -228 225 l-32 64 0 2977 0 2976 88 75 c95 81 89 75
282 245 74 66 169 148 210 184 41 36 134 117 206 180 71 63 211 185 310 271
98 87 244 214 324 284 80 70 192 168 250 219 58 50 164 143 236 206 72 63 159
140 195 171 77 67 673 589 924 809 99 87 259 227 355 310 96 84 204 179 240
210 141 124 341 298 402 350 35 30 118 103 184 161 227 203 349 308 355 306 4
-1 67 -54 140 -117z m1347 -5970 c9 -5 35 -14 58 -20 23 -6 61 -28 87 -50 68
-60 104 -130 121 -236 8 -49 20 -116 26 -149 6 -40 10 -678 10 -1892 l0 -1833
-1790 0 -1790 0 0 1833 c0 1214 4 1852 10 1892 6 33 18 100 26 149 17 106 53
176 121 236 26 22 64 44 87 50 23 6 48 15 56 20 21 12 2955 13 2978 0z"/>
</g>
</svg>
